<svg width="800" height="600" viewBox="0 0 800 600" xmlns="http://www.w3.org/2000/svg">
    <defs>
        <linearGradient id="skyGradient" x1="0%" y1="0%" x2="0%" y2="100%">
            <stop offset="0%" stop-color="#87CEEB" />
            <stop offset="100%" stop-color="#E0F6FF" />
        </linearGradient>

        <radialGradient id="sunGlow">
            <stop offset="70%" stop-color="#FFD700" />
            <stop offset="100%" stop-color="transparent" />
        </radialGradient>

        <filter id="waveFilter">
            <feTurbulence type="fractalNoise" baseFrequency="0.02 0.05" numOctaves="3" />
            <feDisplacementMap in="SourceGraphic" scale="3" />
        </filter>
    </defs>

    <!-- Sky -->
    <rect width="800" height="600" fill="url(#skyGradient)" />

    <!-- Sun -->
    <circle cx="700" cy="100" r="50" fill="url(#sunGlow)" opacity="0.8">
        <animate attributeName="r" values="50;55;50" dur="8s" repeatCount="indefinite" />
    </circle>

    <!-- Ocean -->
    <path d="M0 300 Q400 320 800 300 L800 600 L0 600 Z" fill="#4682B4" filter="url(#waveFilter)" />

    <!-- Sand -->
    <path d="M0 450 Q200 430 400 440 Q600 450 800 430 L800 600 L0 600 Z" fill="#F4A460">
        <animate attributeName="d" values="
      M0 450 Q200 430 400 440 Q600 450 800 430 L800 600 L0 600 Z;
      M0 450 Q200 440 400 435 Q600 440 800 440 L800 600 L0 600 Z;
      M0 450 Q200 430 400 440 Q600 450 800 430 L800 600 L0 600 Z" dur="6s" repeatCount="indefinite" />
    </path>

    <!-- Palm Tree -->
    <path d="M100 450 C120 300 140 250 150 200" stroke="#8B4513" stroke-width="15" stroke-linecap="round" />
    <path d="M150 200 q-40 -50 -20 -100 q60 0 20 100 q-40 -50 0 -100 q40 50 0 100" fill="#228B22" />

    <!-- Clouds -->
    <g transform="translate(200 100)">
        <circle cx="50" cy="30" r="30" fill="white" />
        <circle cx="80" cy="20" r="25" fill="white" />
        <circle cx="110" cy="30" r="28" fill="white" />
        <animateTransform attributeName="transform" type="translate" values="200 100; 220 100; 200 100" dur="12s"
            repeatCount="indefinite" />
    </g>

    <!-- Waves -->
    <g stroke="white" opacity="0.6">
        <path d="M50 320 Q150 300 250 320" stroke-width="2" fill="none">
            <animate attributeName="d" values="
        M50 320 Q150 300 250 320;
        M50 325 Q150 305 250 325;
        M50 320 Q150 300 250 320" dur="3s" repeatCount="indefinite" />
        </path>
        <path d="M300 310 Q400 290 500 310" stroke-width="2" fill="none">
            <animate attributeName="d" values="
        M300 310 Q400 290 500 310;
        M300 315 Q400 295 500 315;
        M300 310 Q400 290 500 310" dur="4s" repeatCount="indefinite" />
        </path>
    </g>

    <!-- Seashells -->
    <g transform="translate(500 520)">
        <path d="M0 0 Q10 -20 20 0 Q10 10 0 0" fill="#FFB6C1" />
        <path d="M30 5 Q40 -15 50 5 Q40 15 30 5" fill="white" />
        <path d="M60 0 Q70 -20 80 0 Q70 10 60 0" fill="#E6E6FA" />
    </g>

    <!-- Sailboat -->
    <g transform="translate(400 350)">
        <path d="M0 50 L50 0 L0 -50 Z" fill="#FF4500" />
        <path d="M0 50 Q-30 40 -50 60 L0 50" fill="#8B4513" />
        <animateMotion path="M0 0 Q100 -50 200 0 Q300 50 400 0" dur="20s" repeatCount="indefinite" />
    </g>
</svg>