<svg width="800" height="600" viewBox="0 0 800 600" xmlns="http://www.w3.org/2000/svg">
    <defs>
        <linearGradient id="nightSky" x1="0%" y1="0%" x2="0%" y2="100%">
            <stop offset="0%" stop-color="#000428" />
            <stop offset="100%" stop-color="#004e92" />
        </linearGradient>

        <radialGradient id="moonGlow">
            <stop offset="70%" stop-color="#f8f9fa" />
            <stop offset="100%" stop-color="transparent" />
        </radialGradient>

        <filter id="lightGlow">
            <feGaussianBlur stdDeviation="2" result="glow" />
            <feMerge>
                <feMergeNode in="glow" />
                <feMergeNode in="SourceGraphic" />
            </feMerge>
        </filter>
    </defs>

    <!-- Background -->
    <rect width="800" height="600" fill="url(#nightSky)" />

    <!-- Stars -->
    <g opacity="0.8">
        <circle cx="120" cy="80" r="1" fill="white" />
        <circle cx="250" cy="50" r="1.5" fill="white" />
        <circle cx="400" cy="30" r="1" fill="white" />
        <animate attributeName="opacity" values="0.8;0.4;0.8" dur="3s" repeatCount="indefinite" />
    </g>

    <!-- City Skyline -->
    <g transform="translate(0 300)">
        <!-- Left Skyscraper -->
        <g transform="translate(50 0)">
            <rect x="0" y="0" width="60" height="250" fill="#2d3436" />
            <g transform="translate(5 10)">
                <rect x="0" y="0" width="10" height="15" fill="#fdcb6e" />
                <rect x="20" y="30" width="10" height="15" fill="#fdcb6e" />
                <rect x="40" y="60" width="10" height="15" fill="#fdcb6e" />
                <animate attributeName="fill" values="#fdcb6e;#ffeaa7;#fdcb6e" dur="8s" repeatCount="indefinite" />
            </g>
        </g>

        <!-- Center Buildings -->
        <g transform="translate(150 50)">
            <rect x="0" y="0" width="80" height="200" fill="#3a3f4b" />
            <rect x="100" y="20" width="60" height="230" fill="#2d3436" />
            <rect x="180" y="-30" width="50" height="280" fill="#4b5358" />
        </g>

        <!-- Right Tower -->
        <g transform="translate(500 -50)">
            <rect x="0" y="0" width="40" height="350" fill="#4b5358" />
            <rect x="40" y="50" width="30" height="300" fill="#3a3f4b" />
            <path d="M35 0 L70 50 L0 50 Z" fill="#d63031" />
        </g>
    </g>

    <!-- Moving Cars -->
    <g stroke="#dfe6e9" stroke-width="3">
        <path d="M0 550 l20 -10" opacity="0.8">
            <animateMotion path="M0 0 L800 0" dur="6s" repeatCount="indefinite" />
        </path>
        <path d="M100 570 l20 -10" opacity="0.8">
            <animateMotion path="M0 0 L800 0" dur="5s" repeatCount="indefinite" />
        </path>
    </g>

    <!-- Road -->
    <rect x="0" y="530" width="800" height="70" fill="#2d3436" />
    <g stroke="#fdcb6e" stroke-width="4" stroke-dasharray="20 10">
        <path d="M0 560 L800 560" />
    </g>

    <!-- Moon -->
    <circle cx="650" cy="100" r="30" fill="url(#moonGlow)" filter="url(#lightGlow)">
        <circle cx="55" cy="85" r="5" fill="#adb5bd" />
    </circle>

    <!-- Ferris Wheel -->
    <g transform="translate(600 400)" stroke="#2d3436" stroke-width="2">
        <circle cx="0" cy="0" r="50" fill="none" />
        <line x1="-50" y1="0" x2="50" y2="0" />
        <line x1="0" y1="-50" x2="0" y2="50" />
        <g transform="rotate(45)">
            <line x1="-35" y1="-35" x2="35" y2="35" />
            <line x1="-35" y1="35" x2="35" y2="-35" />
        </g>
        <g class="cars">
            <circle cx="50" cy="0" r="8" fill="#e84393" />
            <circle cx="-50" cy="0" r="8" fill="#e84393" />
            <circle cx="0" cy="50" r="8" fill="#e84393" />
            <circle cx="0" cy="-50" r="8" fill="#e84393" />
            <animateTransform attributeName="transform" type="rotate" from="0" to="360" dur="20s"
                repeatCount="indefinite" />
        </g>
    </g>

    <!-- Spotlights -->
    <g filter="url(#lightGlow)" opacity="0.7">
        <ellipse cx="600" cy="450" rx="40" ry="20" fill="#74b9ff" />
        <ellipse cx="600" cy="450" rx="30" ry="15" fill="#0984e3" />
        <animate attributeName="opacity" values="0.7;0.4;0.7" dur="4s" repeatCount="indefinite" />
    </g>
</svg>